<?xml version="1.0" standalone="no"?><svg xmlns="http://www.w3.org/2000/svg" viewBox="0 0 1440 320"><path fill="#ffa500" fill-opacity="1" d="M0,64L30,58.7C60,53,120,43,180,80C240,117,300,203,360,202.7C420,203,480,117,540,96C600,75,660,117,720,160C780,203,840,245,900,234.7C960,224,1020,160,1080,149.3C1140,139,1200,181,1260,181.3C1320,181,1380,139,1410,117.3L1440,96L1440,320L1410,320C1380,320,1320,320,1260,320C1200,320,1140,320,1080,320C1020,320,960,320,900,320C840,320,780,320,720,320C660,320,600,320,540,320C480,320,420,320,360,320C300,320,240,320,180,320C120,320,60,320,30,320L0,320Z" data-darkreader-inline-fill="" style="--darkreader-inline-fill:#0079d4;"></path></svg>